<?xml version="1.0" encoding="UTF-8"?>
<svg version="1.1" xmlns="http://www.w3.org/2000/svg" width="460" height="460">
<path d="M0 0 C151.8 0 303.6 0 460 0 C460 151.8 460 303.6 460 460 C308.2 460 156.4 460 0 460 C0 308.2 0 156.4 0 0 Z " fill="#FDFDFB" transform="translate(0,0)"/>
<path d="M0 0 C5.75545682 1.20738027 11.39892185 2.5799283 17 4.375 C17.99966797 4.66890625 17.99966797 4.66890625 19.01953125 4.96875 C20.9375 5.5859375 20.9375 5.5859375 24 7 C25.32869542 10.1527285 24.87896177 12.26107351 23.85546875 15.44921875 C23.59056641 16.29806641 23.32566406 17.14691406 23.05273438 18.02148438 C22.62444336 19.34116211 22.62444336 19.34116211 22.1875 20.6875 C20.3633678 26.41742116 18.65865908 32.08308347 17.45361328 37.97875977 C13.71418243 54.64116453 5.80939435 72.36327336 -3 87 C-3.51820313 87.86496094 -4.03640625 88.72992188 -4.5703125 89.62109375 C-5.59726472 91.33020022 -6.62924245 93.03630491 -7.66796875 94.73828125 C-8.87598281 96.78942536 -9.96538398 98.85721706 -11 101 C-11.66 101 -12.32 101 -13 101 C-13.20625 101.66 -13.4125 102.32 -13.625 103 C-15.49124252 107.07180186 -17.97561527 110.68796998 -21 114 C-21.66 114 -22.32 114 -23 114 C-23.061875 114.556875 -23.12375 115.11375 -23.1875 115.6875 C-24.33901755 118.96489609 -26.5034586 120.6195768 -29 123 C-29.598125 123.78375 -30.19625 124.5675 -30.8125 125.375 C-33.3268607 128.39223284 -36.11695387 130.81076185 -39.1015625 133.3515625 C-41.13584914 135.07175418 -41.13584914 135.07175418 -43.375 137.4375 C-45 139 -45 139 -47 139 C-47.66 140.32 -48.32 141.64 -49 143 C-49.99 143 -50.98 143 -52 143 C-52.19980469 143.56203125 -52.39960938 144.1240625 -52.60546875 144.703125 C-54.5451908 147.89796132 -57.28697119 149.67301975 -60.3125 151.75 C-61.24485474 152.40198364 -61.24485474 152.40198364 -62.19604492 153.06713867 C-73.64074575 160.989056 -85.65434487 167.84469827 -98.0625 174.125 C-99.05407104 174.63063477 -99.05407104 174.63063477 -100.06567383 175.14648438 C-112.25238478 181.24965932 -112.25238478 181.24965932 -116.625 180.625 C-120.02544313 178.29838102 -122.66888595 175.39653731 -125 172 C-125 171.34 -125 170.68 -125 170 C-125.8353125 169.6596875 -125.8353125 169.6596875 -126.6875 169.3125 C-129.66159588 167.62449964 -131.72008865 165.53323483 -134 163 C-134 162.34 -134 161.68 -134 161 C-133.42894531 160.84144531 -132.85789063 160.68289063 -132.26953125 160.51953125 C-114.49790721 155.4055981 -99.00659707 147.06917725 -83.1875 137.6875 C-82.33341553 137.18404053 -81.47933105 136.68058105 -80.59936523 136.16186523 C-76.58931228 133.74955203 -73.17767642 131.48137044 -70 128 C-68.68382211 126.95714131 -67.34950874 125.93685211 -66 124.9375 C-56.79659973 117.83816657 -48.7956615 110.25622339 -41.7421875 101.01953125 C-41.16726563 100.35308594 -40.59234375 99.68664062 -40 99 C-39.34 99 -38.68 99 -38 99 C-37.73703125 98.27167969 -37.4740625 97.54335937 -37.203125 96.79296875 C-35.98508498 93.96537585 -34.56790703 91.78960305 -32.75 89.3125 C-26.34428609 80.3206283 -21.49865053 71.07306531 -17 61 C-16.566875 60.0821875 -16.13375 59.164375 -15.6875 58.21875 C-10.59298016 47.39289534 -6.84207513 36.5065757 -4.578125 24.765625 C-4 22 -4 22 -3 20 C-2.71395783 18.4827016 -2.46851271 16.95760908 -2.24609375 15.4296875 C-2.11396484 14.53378906 -1.98183594 13.63789063 -1.84570312 12.71484375 C-1.64364258 11.30912109 -1.64364258 11.30912109 -1.4375 9.875 C-1.29892578 8.93011719 -1.16035156 7.98523438 -1.01757812 7.01171875 C-0.67531811 4.674909 -0.33625891 2.33767957 0 0 Z " fill="#040404" transform="translate(311,155)"/>
<path d="M0 0 C0.99 0 1.98 0 3 0 C8.50173668 12.93493412 13.84026275 25.92487424 19 39 C19.32419922 39.82016602 19.64839844 40.64033203 19.98242188 41.48535156 C20.92922047 43.88473352 21.87181562 46.28571507 22.8125 48.6875 C23.09037354 49.39334229 23.36824707 50.09918457 23.65454102 50.82641602 C25.60412043 55.83174022 27.3416865 60.89114456 29 66 C12.08300395 74 12.08300395 74 6 74 C5.81824219 73.35933594 5.63648438 72.71867187 5.44921875 72.05859375 C3.93719781 66.85569094 2.16956629 61.97192275 0 57 C-0.45029933 55.67093471 -0.88671321 54.33711991 -1.3125 53 C-5.11281134 41.38468944 -10.16541879 30.17453566 -15.01611328 18.96972656 C-15.38849121 18.10831055 -15.76086914 17.24689453 -16.14453125 16.359375 C-16.47815674 15.59077148 -16.81178223 14.82216797 -17.15551758 14.03027344 C-17.8413981 12.38130482 -18.4352408 10.69427761 -19 9 C-13.76280219 6.28441595 -8.51311533 3.94319381 -3.00390625 1.83203125 C-1.0380261 1.16532677 -1.0380261 1.16532677 0 0 Z " fill="#040404" transform="translate(161,161)"/>
<path d="M0 0 C0.19110352 0.55872803 0.38220703 1.11745605 0.57910156 1.69311523 C1.46522143 4.27603201 2.35757582 6.85675498 3.25 9.4375 C3.55035156 10.31599609 3.85070312 11.19449219 4.16015625 12.09960938 C5.61520982 16.29449786 7.13110347 20.39934905 8.98046875 24.4375 C11.37446863 29.68722463 13.20933039 35.10296949 15.0625 40.5625 C15.73996658 42.54328325 16.41833538 44.52375818 17.09765625 46.50390625 C17.41750488 47.43992676 17.73735352 48.37594727 18.06689453 49.34033203 C18.91458202 51.75652971 19.81678185 54.14165566 20.74609375 56.52734375 C22 60 22 60 22 63 C21.28714844 63.25394531 20.57429688 63.50789063 19.83984375 63.76953125 C13.38032919 66.08286316 13.38032919 66.08286316 7.0625 68.75 C4 70 4 70 0 70 C-4.87498374 55.54846718 -4.87498374 55.54846718 -6.5 49.875 C-7.96624672 44.8798205 -9.84590499 40.07062578 -11.74609375 35.2265625 C-12.87897697 32.3114175 -13.95140338 29.38375933 -15 26.4375 C-16.82490571 21.35169719 -18.90553007 16.3935162 -21.046875 11.43359375 C-22 9 -22 9 -22 7 C-6.96954315 0 -6.96954315 0 0 0 Z " fill="#050504" transform="translate(232,147)"/>
<path d="M0 0 C1.32 0.66 2.64 1.32 4 2 C0.20962911 7.47035213 -3.75027653 11.89962427 -9 16 C-10.125 13.1875 -10.125 13.1875 -11 10 C-10.34 9.01 -9.68 8.02 -9 7 C-8.34 7 -7.68 7 -7 7 C-7 7.66 -7 8.32 -7 9 C-6.34 9 -5.68 9 -5 9 C-5 8.34 -5 7.68 -5 7 C-4.34 7 -3.68 7 -3 7 C-2.690625 6.030625 -2.38125 5.06125 -2.0625 4.0625 C-1 1 -1 1 0 0 Z " fill="#F2F2F2" transform="translate(266,254)"/>
<path d="M0 0 C0.99 0.66 1.98 1.32 3 2 C0.81678354 3.44437483 -1.37119246 4.88049052 -3.5625 6.3125 C-4.17158203 6.71662109 -4.78066406 7.12074219 -5.40820312 7.53710938 C-9.47471269 10.18356798 -13.49015946 12.20651129 -18 14 C-16.375 8.25 -16.375 8.25 -13 6 C-12.01 6 -11.02 6 -10 6 C-9.401875 5.38125 -8.80375 4.7625 -8.1875 4.125 C-5.56650151 1.57888718 -3.5563437 0.75666887 0 0 Z " fill="#EBEBEA" transform="translate(232,287)"/>
<path d="M0 0 C0.66 0.33 1.32 0.66 2 1 C2 1.66 2 2.32 2 3 C1.34 3.66 0.68 4.32 0 5 C-2.10232344 7.8684413 -2.10232344 7.8684413 -3 11 C-2.67 11.99 -2.34 12.98 -2 14 C-2.61875 14.103125 -3.2375 14.20625 -3.875 14.3125 C-6.36526484 14.87525373 -6.36526484 14.87525373 -8 18 C-7.67 18.66 -7.34 19.32 -7 20 C-7.99 20.33 -8.98 20.66 -10 21 C-10.95659766 17.39558228 -11.31063347 15.63194774 -9.63671875 12.2265625 C-8.99347656 11.36804688 -8.35023438 10.50953125 -7.6875 9.625 C-7.05199219 8.75101562 -6.41648437 7.87703125 -5.76171875 6.9765625 C-5.18035156 6.32429688 -4.59898437 5.67203125 -4 5 C-3.34 5 -2.68 5 -2 5 C-1.855625 4.360625 -1.71125 3.72125 -1.5625 3.0625 C-1 1 -1 1 0 0 Z " fill="#EAEAE9" transform="translate(302,251)"/>
<path d="M0 0 C1.32 0.33 2.64 0.66 4 1 C4 1.33 4 1.66 4 2 C5.32 1.34 6.64 0.68 8 0 C9.125 3.75 9.125 3.75 8 6 C8.66 6.33 9.32 6.66 10 7 C9.34 7 8.68 7 8 7 C8 7.66 8 8.32 8 9 C6.68 9.33 5.36 9.66 4 10 C3.32845067 8.71086513 2.66291141 7.41859796 2 6.125 C1.62875 5.40570313 1.2575 4.68640625 0.875 3.9453125 C0 2 0 2 0 0 Z " fill="#F7F7F5" transform="translate(166,167)"/>
<path d="M0 0 C0.66 0 1.32 0 2 0 C2.50615298 1.26839526 3.00469099 2.53983102 3.5 3.8125 C3.91765625 4.87404297 3.91765625 4.87404297 4.34375 5.95703125 C5 8 5 8 5 11 C3.02 11.66 1.04 12.32 -1 13 C-1 12.01 -1 11.02 -1 10 C-0.34 10 0.32 10 1 10 C0.84402344 9.36191406 0.68804687 8.72382813 0.52734375 8.06640625 C0.33269531 7.24011719 0.13804687 6.41382813 -0.0625 5.5625 C-0.25972656 4.73878906 -0.45695313 3.91507813 -0.66015625 3.06640625 C-0.82837891 2.04353516 -0.82837891 2.04353516 -1 1 C-0.67 0.67 -0.34 0.34 0 0 Z " fill="#191918" transform="translate(249,199)"/>
<path d="M0 0 C2 2 2 2 2.08203125 3.875 C1.99308594 4.57625 1.90414063 5.2775 1.8125 6 C1.69841797 7.051875 1.69841797 7.051875 1.58203125 8.125 C1 10 1 10 -2 12 C-3.32 11.01 -4.64 10.02 -6 9 C-5.071875 7.88625 -5.071875 7.88625 -4.125 6.75 C-2.39562719 4.51198812 -1.13893339 2.56260013 0 0 Z " fill="#101010" transform="translate(279,243)"/>
<path d="M0 0 C0.71484375 1.640625 0.71484375 1.640625 1 4 C-0.43359375 6.796875 -0.43359375 6.796875 -2.4375 9.75 C-3.42556641 11.22726563 -3.42556641 11.22726563 -4.43359375 12.734375 C-4.95050781 13.48203125 -5.46742188 14.2296875 -6 15 C-6.66 14.34 -7.32 13.68 -8 13 C-6.25 8.125 -6.25 8.125 -4 7 C-4.33 5.35 -4.66 3.7 -5 2 C-4.01 1.67 -3.02 1.34 -2 1 C-1.67 1.33 -1.34 1.66 -1 2 C-0.67 1.34 -0.34 0.68 0 0 Z " fill="#EBEBE9" transform="translate(288,225)"/>
<path d="M0 0 C2.475 0.99 2.475 0.99 5 2 C5 2.66 5 3.32 5 4 C3.73160474 4.50615298 2.46016898 5.00469099 1.1875 5.5 C0.12595703 5.91765625 0.12595703 5.91765625 -0.95703125 6.34375 C-3 7 -3 7 -6 7 C-4.77065985 3.31197956 -3.06140622 2.27643027 0 0 Z " fill="#F0F0F0" transform="translate(153,160)"/>
<path d="M0 0 C0.66 0.33 1.32 0.66 2 1 C1.01 1.33 0.02 1.66 -1 2 C-1.69658363 3.65438613 -2.36096883 5.32254318 -3 7 C-4.625 8.8125 -4.625 8.8125 -6 10 C-7.32 8.68 -8.64 7.36 -10 6 C-8.3811004 4.96951963 -6.75467511 3.95085322 -5.125 2.9375 C-4.22007812 2.36902344 -3.31515625 1.80054688 -2.3828125 1.21484375 C-1.20332031 0.61349609 -1.20332031 0.61349609 0 0 Z " fill="#181817" transform="translate(227,293)"/>
<path d="M0 0 C1.32 0.66 2.64 1.32 4 2 C3.04956626 3.33897583 2.08940853 4.67105427 1.125 6 C0.59132813 6.7425 0.05765625 7.485 -0.4921875 8.25 C-0.98976563 8.8275 -1.48734375 9.405 -2 10 C-2.66 10 -3.32 10 -4 10 C-3.52449439 8.51965236 -3.04448784 7.04074979 -2.5625 5.5625 C-2.29566406 4.73878906 -2.02882813 3.91507812 -1.75390625 3.06640625 C-1 1 -1 1 0 0 Z " fill="#E8E8E7" transform="translate(266,254)"/>
<path d="M0 0 C0.99 0 1.98 0 3 0 C3.33 0.99 3.66 1.98 4 3 C2.0371157 6.1708131 0.87464 7.74158364 -2.75 8.8125 C-3.4925 8.874375 -4.235 8.93625 -5 9 C-5.33 8.01 -5.66 7.02 -6 6 C-5.01 6 -4.02 6 -3 6 C-2.67 5.01 -2.34 4.02 -2 3 C-1.34 3 -0.68 3 0 3 C0 2.01 0 1.02 0 0 Z " fill="#ECECEC" transform="translate(274,244)"/>
<path d="M0 0 C2.7839183 1.39195915 2.97898997 3.15575779 4 6 C2.68 6.99 1.36 7.98 0 9 C-0.66 8.67 -1.32 8.34 -2 8 C-2.33 8.66 -2.66 9.32 -3 10 C-2.25 3.375 -2.25 3.375 0 0 Z " fill="#121212" transform="translate(292,221)"/>
<path d="M0 0 C0.66 0.33 1.32 0.66 2 1 C2 1.99 2 2.98 2 4 C1.01 4.495 1.01 4.495 0 5 C-0.33 5.66 -0.66 6.32 -1 7 C-2.98 7 -4.96 7 -7 7 C-7.33 6.34 -7.66 5.68 -8 5 C-6.71475739 4.13619741 -5.42157581 3.28419631 -4.125 2.4375 C-3.04605469 1.72400391 -3.04605469 1.72400391 -1.9453125 0.99609375 C-1.30335938 0.66738281 -0.66140625 0.33867187 0 0 Z " fill="#E9E9E8" transform="translate(240,313)"/>
<path d="M0 0 C0.86625 0.556875 0.86625 0.556875 1.75 1.125 C0.75 4.125 0.75 4.125 -1.125 5.375 C-3.25 6.125 -3.25 6.125 -6.25 5.125 C-6.25 3.805 -6.25 2.485 -6.25 1.125 C-2.80384615 -1.09038462 -2.80384615 -1.09038462 0 0 Z " fill="#E7E7E6" transform="translate(188.25,308.875)"/>
<path d="M0 0 C2.64 0.66 5.28 1.32 8 2 C8.33 3.32 8.66 4.64 9 6 C8.34 5.67 7.68 5.34 7 5 C6.34 5.66 5.68 6.32 5 7 C1.5084773 4.74740471 1.07356469 4.29425875 0 0 Z " fill="#151515" transform="translate(327,160)"/>
<path d="M0 0 C0 0.99 0 1.98 0 3 C-1.5 4.125 -1.5 4.125 -4 5 C-6.7773082 4.57598348 -9.29639783 3.81108065 -12 3 C-3.7826087 -1.26086957 -3.7826087 -1.26086957 0 0 Z " fill="#F0F0EE" transform="translate(255,211)"/>
<path d="M0 0 C1.32 0.33 2.64 0.66 4 1 C4 3.33333333 4 5.66666667 4 8 C1.03 7.505 1.03 7.505 -2 7 C-1.34 4.69 -0.68 2.38 0 0 Z " fill="#EAEAE8" transform="translate(315,226)"/>
<path d="M0 0 C0.66 0.33 1.32 0.66 2 1 C2 2.98 2 4.96 2 7 C-0.475 6.01 -0.475 6.01 -3 5 C-4.32 6.65 -5.64 8.3 -7 10 C-7.4375 7.8125 -7.4375 7.8125 -7 5 C-4.86004673 3.01558218 -2.49824035 1.4976696 0 0 Z " fill="#161616" transform="translate(245,280)"/>
<path d="M0 0 C0.33 0.99 0.66 1.98 1 3 C-2.75 6 -2.75 6 -5 6 C-5.33 6.99 -5.66 7.98 -6 9 C-6.66 8.01 -7.32 7.02 -8 6 C-5.52997602 2.17146283 -5.52997602 2.17146283 -2.875 1.3125 C-2.25625 1.209375 -1.6375 1.10625 -1 1 C-0.67 0.67 -0.34 0.34 0 0 Z " fill="#E6E6E5" transform="translate(243,279)"/>
<path d="M0 0 C0.66 0.33 1.32 0.66 2 1 C2 1.99 2 2.98 2 4 C1.01 4.495 1.01 4.495 0 5 C-0.33 5.99 -0.66 6.98 -1 8 C-1.66 8 -2.32 8 -3 8 C-3.66 6.35 -4.32 4.7 -5 3 C-2.625 1.4375 -2.625 1.4375 0 0 Z " fill="#121210" transform="translate(147,167)"/>
<path d="M0 0 C-0.33 1.32 -0.66 2.64 -1 4 C-1.99 3.67 -2.98 3.34 -4 3 C-4.33 5.64 -4.66 8.28 -5 11 C-5.33 11 -5.66 11 -6 11 C-5.979375 9.906875 -5.95875 8.81375 -5.9375 7.6875 C-5.81455548 4.05615809 -5.81455548 4.05615809 -7 1 C-4.53721199 -0.231394 -2.7204945 -0.07159196 0 0 Z " fill="#EEEEEC" transform="translate(315,152)"/>
<path d="M0 0 C1.65 1.32 3.3 2.64 5 4 C4.34 5.32 3.68 6.64 3 8 C2.34 7.34 1.68 6.68 1 6 C0.01 6.33 -0.98 6.66 -2 7 C-2.33 6.34 -2.66 5.68 -3 5 C-2.67 4.34 -2.34 3.68 -2 3 C-1.34 3 -0.68 3 0 3 C0 2.01 0 1.02 0 0 Z " fill="#EDEDEB" transform="translate(187,328)"/>
<path d="M0 0 C0.66 0 1.32 0 2 0 C2.66 2.97 3.32 5.94 4 9 C2.68 9 1.36 9 0 9 C-1.10844919 5.67465243 -0.84454356 3.37817425 0 0 Z " fill="#EDEDEB" transform="translate(228,207)"/>
<path d="M0 0 C0.99 0.33 1.98 0.66 3 1 C1.74381926 4.76854223 0.33985294 5.07958456 -3 7 C-3.33 7.66 -3.66 8.32 -4 9 C-4.99 8.67 -5.98 8.34 -7 8 C-4.69 5.36 -2.38 2.72 0 0 Z " fill="#E1E1DF" transform="translate(285,273)"/>
<path d="M0 0 C-0.62759865 2.92879371 -1.58622659 5.36095629 -3 8 C-3.99 7.67 -4.98 7.34 -6 7 C-5.6875 4.625 -5.6875 4.625 -5 2 C-2 0 -2 0 0 0 Z " fill="#141414" transform="translate(303,248)"/>
<path d="M0 0 C0.33 1.32 0.66 2.64 1 4 C0.01 4 -0.98 4 -2 4 C-3.672233 4.65257873 -5.33927151 5.31867549 -7 6 C-7.66 6 -8.32 6 -9 6 C-9 5.01 -9 4.02 -9 3 C-6.03 2.01 -3.06 1.02 0 0 Z " fill="#ECECEA" transform="translate(192,226)"/>
<path d="M0 0 C1.79068573 2.6860286 2.66055791 4.6626589 3.625 7.6875 C3.88539063 8.49574219 4.14578125 9.30398437 4.4140625 10.13671875 C4.60742188 10.75160156 4.80078125 11.36648437 5 12 C4.01 12 3.02 12 2 12 C-0.12055529 8.46574118 -0.61577388 5.07279689 -1 1 C-0.67 0.67 -0.34 0.34 0 0 Z " fill="#181818" transform="translate(185,215)"/>
<path d="M0 0 C2.4375 0.8125 2.4375 0.8125 5 2 C5.33 2.99 5.66 3.98 6 5 C5.34 5 4.68 5 4 5 C4.33 6.98 4.66 8.96 5 11 C2.03947516 7.63576723 1.07710178 4.30840713 0 0 Z " fill="#EDEDEB" transform="translate(176,191)"/>
<path d="M0 0 C2.97 0.495 2.97 0.495 6 1 C5.34 3.31 4.68 5.62 4 8 C3.34 8 2.68 8 2 8 C1.34 5.36 0.68 2.72 0 0 Z " fill="#F1F1EF" transform="translate(241,172)"/>
<path d="M0 0 C2.51083114 1.25541557 2.87125446 2.50063488 4 5 C2.35 6.98 0.7 8.96 -1 11 C-2.659214 7.681572 -1.57259528 4.60735024 -1 1 C-0.67 0.67 -0.34 0.34 0 0 Z " fill="#EBEBEA" transform="translate(336,161)"/>
<path d="M0 0 C0.66 0.33 1.32 0.66 2 1 C1.67 2.65 1.34 4.3 1 6 C0.34 6 -0.32 6 -1 6 C-1.33 6.66 -1.66 7.32 -2 8 C-2.99 7.67 -3.98 7.34 -5 7 C-3.47793991 4.37098712 -2.15634036 2.15634036 0 0 Z " fill="#121212" transform="translate(270,256)"/>
<path d="M0 0 C1.11003253 3.3300976 0.9343162 3.97843441 -0.25 7.125 C-0.62898438 8.18074219 -0.62898438 8.18074219 -1.015625 9.2578125 C-2 11 -2 11 -5 12 C-5.33 11.34 -5.66 10.68 -6 10 C-5.67 9.34 -5.34 8.68 -5 8 C-4.34 8 -3.68 8 -3 8 C-3.061875 7.236875 -3.12375 6.47375 -3.1875 5.6875 C-3 3 -3 3 -1.5 1.1875 C-1.005 0.795625 -0.51 0.40375 0 0 Z " fill="#0F0F0F" transform="translate(321,209)"/>
<path d="M0 0 C0.33 0.99 0.66 1.98 1 3 C0.01 3 -0.98 3 -2 3 C-2.33 3.66 -2.66 4.32 -3 5 C-5.64 5 -8.28 5 -11 5 C-7.84704833 1.84704833 -4.48812083 0 0 0 Z " fill="#212121" transform="translate(164,161)"/>
<path d="M0 0 C0.99 0.66 1.98 1.32 3 2 C3 2.66 3 3.32 3 4 C3.33 3.34 3.66 2.68 4 2 C4.99 2.33 5.98 2.66 7 3 C6.34 3 5.68 3 5 3 C5 3.99 5 4.98 5 6 C2.23723823 5.47731534 -0.3260876 4.89130413 -3 4 C-3 3.34 -3 2.68 -3 2 C-2.01 1.34 -1.02 0.68 0 0 Z " fill="#EDEDEB" transform="translate(320,153)"/>
<path d="M0 0 C0.66 0.33 1.32 0.66 2 1 C2 1.66 2 2.32 2 3 C-0.64 3.99 -3.28 4.98 -6 6 C-6.33 5.01 -6.66 4.02 -7 3 C-4.69631264 1.93347808 -2.35981813 0.93578995 0 0 Z " fill="#E3E3E1" transform="translate(214,328)"/>
<path d="M0 0 C0.99 0 1.98 0 3 0 C3.66 1.98 4.32 3.96 5 6 C3.35 6.33 1.7 6.66 0 7 C0 4.69 0 2.38 0 0 Z " fill="#F1F1F1" transform="translate(208,156)"/>
<path d="M0 0 C0.86625 0.3403125 0.86625 0.3403125 1.75 0.6875 C1.75 2.0075 1.75 3.3275 1.75 4.6875 C0.43 5.0175 -0.89 5.3475 -2.25 5.6875 C-2.25 5.0275 -2.25 4.3675 -2.25 3.6875 C-3.57 3.3575 -4.89 3.0275 -6.25 2.6875 C-2.80384615 -0.38942308 -2.80384615 -0.38942308 0 0 Z " fill="#E5E5E3" transform="translate(227.25,322.3125)"/>
<path d="M0 0 C1.15957207 3.47871621 0.77456651 4.34219645 -0.4375 7.6875 C-0.72496094 8.49574219 -1.01242187 9.30398437 -1.30859375 10.13671875 C-1.53675781 10.75160156 -1.76492188 11.36648437 -2 12 C-2.99 11.67 -3.98 11.34 -5 11 C-1.85714286 3.57142857 -1.85714286 3.57142857 0 0 Z " fill="#1B1B1B" transform="translate(334,167)"/>
<path d="M0 0 C0.99 0.66 1.98 1.32 3 2 C2.01 2.495 2.01 2.495 1 3 C0.34786708 5.02463255 0.34786708 5.02463255 0 7 C-1.32 6.34 -2.64 5.68 -4 5 C-3 2 -3 2 0 0 Z " fill="#E7E7E5" transform="translate(255,302)"/>
<path d="M0 0 C-0.1875 2.375 -0.1875 2.375 -1 5 C-3.5625 6.3125 -3.5625 6.3125 -6 7 C-6.33 6.01 -6.66 5.02 -7 4 C-5.53303752 1.06607504 -3.25996861 0 0 0 Z " fill="#EAEAE8" transform="translate(265,296)"/>
<path d="M0 0 C1.98 0.495 1.98 0.495 4 1 C4 1.99 4 2.98 4 4 C2 5.6875 2 5.6875 0 7 C-0.93423645 3.98968256 -1.04449911 3.13349732 0 0 Z " fill="#EAEAEA" transform="translate(246,273)"/>
<path d="M0 0 C0.99 0 1.98 0 3 0 C3.185625 0.9590625 3.185625 0.9590625 3.375 1.9375 C3.684375 2.9584375 3.684375 2.9584375 4 4 C4.66 4.33 5.32 4.66 6 5 C5.67 6.32 5.34 7.64 5 9 C4.34 9 3.68 9 3 9 C2.01 6.03 1.02 3.06 0 0 Z " fill="#151514" transform="translate(228,204)"/>
<path d="M0 0 C0.99 0.33 1.98 0.66 3 1 C2.34 1.66 1.68 2.32 1 3 C1 3.66 1 4.32 1 5 C-0.65 5.33 -2.3 5.66 -4 6 C-2.25 1.125 -2.25 1.125 0 0 Z " fill="#F2F2F1" transform="translate(226,289)"/>
<path d="M0 0 C0.66 0 1.32 0 2 0 C2.66 1.65 3.32 3.3 4 5 C3.01 5.99 2.02 6.98 1 8 C0.34 5.69 -0.32 3.38 -1 1 C-0.67 0.67 -0.34 0.34 0 0 Z " fill="#EDEDED" transform="translate(172,178)"/>
<path d="M0 0 C1.32 0.33 2.64 0.66 4 1 C4 1.99 4 2.98 4 4 C4.62599617 5.68236471 5.28752268 7.3523962 6 9 C5.01 9.495 5.01 9.495 4 10 C3.32845067 8.71086513 2.66291141 7.41859796 2 6.125 C1.62875 5.40570313 1.2575 4.68640625 0.875 3.9453125 C0 2 0 2 0 0 Z " fill="#E7E7E5" transform="translate(166,167)"/>
<path d="M0 0 C0.99 0.33 1.98 0.66 3 1 C1.515 3.475 1.515 3.475 0 6 C-1.32 5.34 -2.64 4.68 -4 4 C-2.68 2.68 -1.36 1.36 0 0 Z " fill="#E7E7E5" transform="translate(248,307)"/>
<path d="M0 0 C0.99 0.99 1.98 1.98 3 3 C1.25 4.125 1.25 4.125 -1 5 C-3.25 4.125 -3.25 4.125 -5 3 C-3.35 2.01 -1.7 1.02 0 0 Z " fill="#111111" transform="translate(235,288)"/>
<path d="M0 0 C0.99 1.32 1.98 2.64 3 4 C2.34 4.66 1.68 5.32 1 6 C-1.475 5.01 -1.475 5.01 -4 4 C-2 1 -2 1 0 0 Z " fill="#EFEFED" transform="translate(158,209)"/>
<path d="M0 0 C-0.33 0.99 -0.66 1.98 -1 3 C-0.34 3.66 0.32 4.32 1 5 C-0.65 5.33 -2.3 5.66 -4 6 C-4.33 4.68 -4.66 3.36 -5 2 C-2 0 -2 0 0 0 Z " fill="#1D1D1D" transform="translate(215,152)"/>
<path d="M0 0 C-0.125 1.8125 -0.125 1.8125 -1 4 C-4.0625 5.75 -4.0625 5.75 -7 7 C-3.86206897 0 -3.86206897 0 0 0 Z " fill="#161614" transform="translate(220,322)"/>
<path d="M0 0 C0.99 0.33 1.98 0.66 3 1 C3.33 2.65 3.66 4.3 4 6 C3.01 6 2.02 6 1 6 C-0.0625 4.125 -0.0625 4.125 -1 2 C-0.67 1.34 -0.34 0.68 0 0 Z " fill="#F6F6F6" transform="translate(242,274)"/>
<path d="M0 0 C1.20628008 2.33214148 2.1654738 4.49642139 3 7 C1.68 6.67 0.36 6.34 -1 6 C-1.33 4.35 -1.66 2.7 -2 1 C-1.34 0.67 -0.68 0.34 0 0 Z " fill="#191918" transform="translate(156,196)"/>
<path d="M0 0 C0 0.66 0 1.32 0 2 C-1.98 2.33 -3.96 2.66 -6 3 C-6.66 2.01 -7.32 1.02 -8 0 C-5.13822943 -1.43088528 -3.06624227 -0.59991697 0 0 Z " fill="#E8E8E8" transform="translate(224,148)"/>
<path d="M0 0 C0.99 0.99 1.98 1.98 3 3 C2.67 3.66 2.34 4.32 2 5 C1.34 4.67 0.68 4.34 0 4 C-0.33 4.66 -0.66 5.32 -1 6 C-1.66 5.34 -2.32 4.68 -3 4 C-2.01 2.68 -1.02 1.36 0 0 Z " fill="#E1E1DF" transform="translate(308,241)"/>
</svg>
