<svg width="300" height="300" viewBox="0 0 300 300" fill="none" xmlns="http://www.w3.org/2000/svg">
<g filter="url(#filter0_d_5_52)">
<path fill-rule="evenodd" clip-rule="evenodd" d="M249.712 124.64H50.2878V224.353C50.2878 230.964 52.9142 237.304 57.5891 241.979C62.264 246.654 68.6046 249.281 75.2159 249.281H224.784C231.396 249.281 237.736 246.654 242.411 241.979C247.086 237.304 249.712 230.964 249.712 224.353V124.64ZM112.608 162.032V149.568H187.392V162.032C187.392 165.338 186.079 168.508 183.742 170.846C181.404 173.183 178.234 174.496 174.928 174.496H125.072C121.766 174.496 118.596 173.183 116.259 170.846C113.921 168.508 112.608 165.338 112.608 162.032Z" fill="#928374"/>
<path d="M25.3596 74.7842C25.3596 68.1728 27.986 61.8323 32.6609 57.1574C37.3358 52.4824 43.6763 49.8561 50.2877 49.8561H249.712C256.323 49.8561 262.664 52.4824 267.339 57.1574C272.014 61.8323 274.64 68.1728 274.64 74.7842C274.64 81.3955 272.014 87.736 267.339 92.411C262.664 97.0859 256.323 99.7122 249.712 99.7122H50.2877C43.6763 99.7122 37.3358 97.0859 32.6609 92.411C27.986 87.736 25.3596 81.3955 25.3596 74.7842Z" fill="#928374"/>
</g>
<defs>
<filter id="filter0_d_5_52" x="-3.56836" y="0" width="307.137" height="307.137" filterUnits="userSpaceOnUse" color-interpolation-filters="sRGB">
<feFlood flood-opacity="0" result="BackgroundImageFix"/>
<feColorMatrix in="SourceAlpha" type="matrix" values="0 0 0 0 0 0 0 0 0 0 0 0 0 0 0 0 0 0 127 0" result="hardAlpha"/>
<feOffset dy="4"/>
<feGaussianBlur stdDeviation="2"/>
<feComposite in2="hardAlpha" operator="out"/>
<feColorMatrix type="matrix" values="0 0 0 0 0 0 0 0 0 0 0 0 0 0 0 0 0 0 0.25 0"/>
<feBlend mode="normal" in2="BackgroundImageFix" result="effect1_dropShadow_5_52"/>
<feBlend mode="normal" in="SourceGraphic" in2="effect1_dropShadow_5_52" result="shape"/>
</filter>
</defs>
</svg>
