<svg width="274" height="274" viewBox="0 0 274 274" fill="none" xmlns="http://www.w3.org/2000/svg">
<g filter="url(#filter0_d_5_39)">
<path d="M125.583 102.75C125.583 99.7221 126.786 96.8182 128.927 94.6772C131.068 92.5362 133.972 91.3333 137 91.3333C140.028 91.3333 142.932 92.5362 145.073 94.6772C147.214 96.8182 148.417 99.7221 148.417 102.75C148.417 105.778 147.214 108.682 145.073 110.823C142.932 112.964 140.028 114.167 137 114.167C133.972 114.167 131.068 112.964 128.927 110.823C126.786 108.682 125.583 105.778 125.583 102.75Z" fill="#928374"/>
<path fill-rule="evenodd" clip-rule="evenodd" d="M112.979 34.8323C115.845 31.2044 119.494 28.2726 123.654 26.257C127.815 24.2413 132.377 23.1942 137 23.1942C141.623 23.1942 146.186 24.2413 150.346 26.257C154.506 28.2726 158.156 31.2044 161.021 34.8323C162.699 36.9558 165.359 38.0518 168.042 37.7435C172.633 37.2034 177.287 37.7102 181.654 39.2259C186.021 40.7416 189.989 43.2269 193.258 46.4951C196.527 49.7634 199.014 53.7297 200.531 58.0964C202.048 62.4631 202.557 67.1168 202.018 71.7081C201.86 73.0287 202.044 74.3677 202.552 75.597C203.06 76.8263 203.874 77.9048 204.918 78.7293C208.546 81.5944 211.478 85.244 213.493 89.4043C215.509 93.5645 216.556 98.1272 216.556 102.75C216.556 107.373 215.509 111.936 213.493 116.096C211.478 120.256 208.546 123.906 204.918 126.771C203.875 127.596 203.061 128.675 202.554 129.904C202.046 131.133 201.862 132.471 202.018 133.792C202.559 138.384 202.052 143.039 200.535 147.407C199.019 151.775 196.533 155.743 193.263 159.013C189.993 162.282 186.026 164.769 181.657 166.285C177.289 167.801 172.634 168.308 168.042 167.768C166.721 167.61 165.382 167.794 164.153 168.302C162.924 168.81 161.845 169.624 161.021 170.668C158.154 174.294 154.504 177.224 150.344 179.238C146.184 181.252 141.622 182.299 137 182.299C132.378 182.299 127.816 181.252 123.656 179.238C119.496 177.224 115.846 174.294 112.979 170.668C112.157 169.624 111.081 168.808 109.854 168.299C108.627 167.789 107.289 167.602 105.97 167.757C101.379 168.297 96.7247 167.79 92.3575 166.274C87.9902 164.758 84.0231 162.273 80.7537 159.005C77.4844 155.737 74.9978 151.77 73.4806 147.404C71.9634 143.037 71.455 138.383 71.9936 133.792C72.1499 132.47 71.9642 131.131 71.4545 129.901C70.9448 128.672 70.128 127.594 69.0824 126.771C65.4545 123.906 62.5227 120.256 60.5071 116.096C58.4915 111.936 57.4443 107.373 57.4443 102.75C57.4443 98.1272 58.4915 93.5645 60.5071 89.4043C62.5227 85.244 65.4545 81.5944 69.0824 78.7293C70.128 77.906 70.9448 76.8281 71.4545 75.5987C71.9642 74.3694 72.1499 73.0297 71.9936 71.7081C71.455 67.1168 71.9634 62.4631 73.4806 58.0964C74.9978 53.7297 77.4844 49.7634 80.7537 46.4951C84.0231 43.2269 87.9902 40.7416 92.3575 39.2259C96.7247 37.7102 101.379 37.2034 105.97 37.7435C107.289 37.8977 108.627 37.7111 109.854 37.2014C111.081 36.6918 112.157 35.8761 112.979 34.8323ZM137 68.5C127.916 68.5 119.205 72.1085 112.782 78.5316C106.359 84.9547 102.75 93.6663 102.75 102.75C102.75 111.834 106.359 120.545 112.782 126.968C119.205 133.392 127.916 137 137 137C146.084 137 154.795 133.392 161.219 126.968C167.642 120.545 171.25 111.834 171.25 102.75C171.25 93.6663 167.642 84.9547 161.219 78.5316C154.795 72.1085 146.084 68.5 137 68.5Z" fill="#928374"/>
<path d="M61.5927 171.878L46.4656 216.917C45.7903 218.928 45.689 221.088 46.1732 223.155C46.6573 225.221 47.7077 227.111 49.2064 228.613C50.7051 230.115 52.5928 231.17 54.6577 231.659C56.7226 232.148 58.883 232.052 60.8963 231.382L83.1588 223.961L96.2195 243.449C97.4001 245.203 99.0445 246.595 100.97 247.469C102.895 248.343 105.025 248.666 107.122 248.4C109.22 248.135 111.202 247.293 112.849 245.967C114.496 244.641 115.743 242.884 116.45 240.892L129.236 204.587C118.477 203.043 108.453 198.229 100.524 190.795C93.0709 190.544 85.7539 188.732 79.0459 185.475C72.3378 182.219 66.388 177.59 61.5813 171.889L61.5927 171.878ZM144.58 204.61L157.367 240.88C158.073 242.876 159.319 244.635 160.967 245.963C162.615 247.291 164.6 248.135 166.699 248.4C168.799 248.666 170.931 248.342 172.858 247.466C174.784 246.589 176.429 245.195 177.609 243.438L190.67 223.949L212.932 231.37C214.944 232.039 217.103 232.135 219.166 231.646C221.23 231.158 223.116 230.104 224.614 228.603C226.113 227.103 227.163 225.215 227.649 223.15C228.134 221.086 228.035 218.928 227.363 216.917L212.293 172.049C207.485 177.705 201.549 182.295 194.865 185.523C188.18 188.751 180.895 190.547 173.476 190.795C165.502 198.267 155.414 203.092 144.592 204.61H144.58Z" fill="#928374"/>
</g>
<defs>
<filter id="filter0_d_5_39" x="-4" y="0" width="282" height="282" filterUnits="userSpaceOnUse" color-interpolation-filters="sRGB">
<feFlood flood-opacity="0" result="BackgroundImageFix"/>
<feColorMatrix in="SourceAlpha" type="matrix" values="0 0 0 0 0 0 0 0 0 0 0 0 0 0 0 0 0 0 127 0" result="hardAlpha"/>
<feOffset dy="4"/>
<feGaussianBlur stdDeviation="2"/>
<feComposite in2="hardAlpha" operator="out"/>
<feColorMatrix type="matrix" values="0 0 0 0 0 0 0 0 0 0 0 0 0 0 0 0 0 0 0.25 0"/>
<feBlend mode="normal" in2="BackgroundImageFix" result="effect1_dropShadow_5_39"/>
<feBlend mode="normal" in="SourceGraphic" in2="effect1_dropShadow_5_39" result="shape"/>
</filter>
</defs>
</svg>
