<svg width="287" height="287" viewBox="0 0 287 287" fill="none" xmlns="http://www.w3.org/2000/svg">
<g filter="url(#filter0_d_5_50)">
<path fill-rule="evenodd" clip-rule="evenodd" d="M35.8751 47.8333C32.7035 47.8333 29.6619 49.0932 27.4193 51.3358C25.1766 53.5785 23.9167 56.6201 23.9167 59.7917V227.208C23.9167 230.38 25.1766 233.422 27.4193 235.664C29.6619 237.907 32.7035 239.167 35.8751 239.167H251.125C254.297 239.167 257.338 237.907 259.581 235.664C261.824 233.422 263.083 230.38 263.083 227.208V59.7917C263.083 56.6201 261.824 53.5785 259.581 51.3358C257.338 49.0932 254.297 47.8333 251.125 47.8333H35.8751ZM87.2122 116.08C85.0339 113.824 83.8286 110.803 83.8558 107.668C83.8831 104.533 85.1407 101.533 87.3579 99.3161C89.5751 97.0989 92.5744 95.8413 95.7098 95.8141C98.8452 95.7868 101.866 96.9921 104.121 99.1705L139.996 135.045C142.238 137.288 143.498 140.329 143.498 143.5C143.498 146.671 142.238 149.712 139.996 151.955L104.121 187.83C101.866 190.008 98.8452 191.213 95.7098 191.186C92.5744 191.159 89.5751 189.901 87.3579 187.684C85.1407 185.467 83.8831 182.467 83.8558 179.332C83.8286 176.197 85.0339 173.176 87.2122 170.92L114.633 143.5L87.2122 116.08ZM155.458 167.417C152.287 167.417 149.245 168.677 147.003 170.919C144.76 173.162 143.5 176.203 143.5 179.375C143.5 182.547 144.76 185.588 147.003 187.831C149.245 190.073 152.287 191.333 155.458 191.333H191.333C194.505 191.333 197.547 190.073 199.789 187.831C202.032 185.588 203.292 182.547 203.292 179.375C203.292 176.203 202.032 173.162 199.789 170.919C197.547 168.677 194.505 167.417 191.333 167.417H155.458Z" fill="#928374"/>
</g>
<defs>
<filter id="filter0_d_5_50" x="-4" y="0" width="295" height="295" filterUnits="userSpaceOnUse" color-interpolation-filters="sRGB">
<feFlood flood-opacity="0" result="BackgroundImageFix"/>
<feColorMatrix in="SourceAlpha" type="matrix" values="0 0 0 0 0 0 0 0 0 0 0 0 0 0 0 0 0 0 127 0" result="hardAlpha"/>
<feOffset dy="4"/>
<feGaussianBlur stdDeviation="2"/>
<feComposite in2="hardAlpha" operator="out"/>
<feColorMatrix type="matrix" values="0 0 0 0 0 0 0 0 0 0 0 0 0 0 0 0 0 0 0.25 0"/>
<feBlend mode="normal" in2="BackgroundImageFix" result="effect1_dropShadow_5_50"/>
<feBlend mode="normal" in="SourceGraphic" in2="effect1_dropShadow_5_50" result="shape"/>
</filter>
</defs>
</svg>
